<svg id="visual" viewBox="0 0 900 200" width="900" height="200" xmlns="http://www.w3.org/2000/svg" xmlns:xlink="http://www.w3.org/1999/xlink" version="1.1"><path d="M0 82L129 81L257 46L386 96L514 57L643 52L771 62L900 33L900 201L771 201L643 201L514 201L386 201L257 201L129 201L0 201Z" fill="#359c89"></path><path d="M0 96L129 99L257 117L386 70L514 67L643 75L771 114L900 83L900 201L771 201L643 201L514 201L386 201L257 201L129 201L0 201Z" fill="#2c8071"></path><path d="M0 97L129 98L257 111L386 139L514 131L643 99L771 96L900 140L900 201L771 201L643 201L514 201L386 201L257 201L129 201L0 201Z" fill="#23665a"></path><path d="M0 132L129 159L257 156L386 132L514 136L643 157L771 139L900 144L900 201L771 201L643 201L514 201L386 201L257 201L129 201L0 201Z" fill="#1a4d44"></path><path d="M0 169L129 182L257 149L386 150L514 169L643 151L771 163L900 176L900 201L771 201L643 201L514 201L386 201L257 201L129 201L0 201Z" fill="#12352f"></path></svg>